<?xml version="1.0" encoding="utf-8"?>
<!-- Generator: Adobe Illustrator 19.0.0, SVG Export Plug-In . SVG Version: 6.00 Build 0)  -->
<svg version="1.1" id="Layer_1" xmlns="http://www.w3.org/2000/svg" xmlns:xlink="http://www.w3.org/1999/xlink" x="0px" y="0px"
	 viewBox="52 -52 128 128" style="enable-background:new 52 -52 128 128;" xml:space="preserve">
<style type="text/css">
	.st0{fill:#205081;}
</style>
<path class="st0" d="M116-51L116-51L116-51c-30,0-54.6,8.1-54.6,18.1c0,2.6,6.6,40.5,9.1,55.5c1.2,6.7,18.6,16.6,45.4,16.6l0-0.1
	v0.1c27,0,44.2-9.9,45.4-16.6c2.6-15,9.2-52.9,9.2-55.5C170.6-42.9,146-51,116-51L116-51z M116,27.1c-9.6,0-17.3-7.8-17.3-17.3
	c0-9.6,7.8-17.3,17.3-17.3s17.3,7.8,17.3,17.3C133.3,19.3,125.6,27.1,116,27.1z M116-27.3c-19.3,0-34.9-3.4-34.9-7.5
	c0-4.1,15.7-7.4,35-7.4c19.3,0,34.9,3.4,34.9,7.5C150.9-30.6,135.3-27.3,116-27.3L116-27.3z"/>
<path class="st0" d="M155.2,37.7c-0.8,0-1.5,0.6-1.5,0.6S140.3,48.9,116,48.9S78.3,38.3,78.3,38.3s-0.7-0.6-1.5-0.6
	c-1,0-1.9,0.7-1.9,2.1c0,0.2,0,0.3,0,0.5c2.1,11.2,3.6,19.1,3.9,20.3C80.6,68.8,96.7,75,116,75h0c19.3,0,35.4-6.2,37.2-14.4
	c0.3-1.2,1.8-9.1,3.9-20.3c0-0.2,0-0.3,0-0.5C157.1,38.4,156.2,37.7,155.2,37.7L155.2,37.7z"/>
</svg>
