<svg 
	xmlns="http://www.w3.org/2000/svg" viewBox="0 0 300 300">
	<path d="M146 4a142 142 0 1 0 0 284 142 142 0 0 0 0-284zm0 260.7c-65.4 0-118.7-53.2-118.7-118.7S80.6 27.3 146 27.3 264.7 80.5 264.7 146 211.4 264.7 146 264.7z" class="st0"/>
	<path d="M233.7 118.3l-.1-.3-.1-.6-.1-.4-.2-.5-.2-.4-.3-.5-.2-.4-.3-.5-.3-.3-.4-.4-.3-.3-.4-.4-.3-.3-.1-.1-80.3-53.5a7.6 7.6 0 0 0-8.4 0L61.5 113l-.1.1-.3.3-.4.4-.3.3-.4.4-.3.3-.3.5-.2.4-.3.5-.2.4-.2.5-.1.4-.1.6-.1.3-.1 1v53.5l.1 1 .1.3.1.6.1.4.2.6.2.4.3.5.2.3.3.5.3.3.4.4.3.3.4.4.3.3.1.1 80.3 53.5a8 8 0 0 0 4.2 1.3c1.5 0 2.9-.4 4.2-1.3l80.3-53.5.1-.1.3-.3.4-.4.3-.3.4-.4.3-.3.3-.5.2-.3.3-.5.2-.4.2-.6.1-.4.1-.6.1-.3.1-1v-53.5l-.2-1.1zm-80.2-38.5l59.1 39.4-26.4 17.7-32.7-21.9V79.8zm-15.1 0V115l-32.7 21.9-26.4-17.7 59.1-39.4zm-65.1 53.6L92.2 146l-18.9 12.6v-25.2zm65.1 78.8l-59.1-39.4 26.4-17.7 32.7 21.9v35.2zm7.6-48.4L119.3 146l26.7-17.9 26.7 17.9-26.7 17.8zm7.5 48.4V177l32.7-21.9 26.4 17.7-59.1 39.4zm65.2-53.6L199.8 146l18.9-12.6v25.2z" class="st0"/>
</svg>