<svg xmlns="http://www.w3.org/2000/svg" viewBox="0 0 105.5 102.5"><path d="M51.574 1.848c-.9 0-1.8.3-2.5.6l-34.8 16.6a6.82 6.82 0 0 0-3.6 4.5l-8.6 37.3c-.4 1.7-.1 3.6.9 5.1.1.2.2.4.4.5l24.1 29.9c1.3 1.6 3.2 2.5 5.2 2.5h38.6c2 0 3.9-.9 5.2-2.5l24.1-29.9c1.3-1.6 1.7-3.6 1.3-5.6l-8.6-37.3a6.82 6.82 0 0 0-3.6-4.5l-34.8-16.6a9.6 9.6 0 0 0-3.3-.6z" fill="#326ce5"/><path d="M51.874 14.548c-1.1 0-2.1 1-2.1 2.3v.6c0 .7.2 1.3.3 2 .2 1.5.3 2.7.2 3.8-.1.4-.4.8-.7 1.1v.9a27.13 27.13 0 0 0-3.8.6c-5.4 1.2-10.1 4-13.6 7.8-.2-.2-.6-.4-.8-.5-.4.1-.7.2-1.2-.1-.9-.6-1.8-1.5-2.8-2.5-.5-.5-.8-1-1.4-1.5-.1-.1-.3-.3-.5-.4-.4-.3-1-.5-1.4-.5-.6 0-1.3.2-1.7.7-.7.9-.5 2.3.5 3.1.1.1.3.3.4.3.6.4 1.1.7 1.7 1 1.2.8 2.3 1.4 3.1 2.2.3.3.4.9.4 1.2l.7.6a26.69 26.69 0 0 0-4.2 18.8l-.9.3c-.2.3-.6.8-.9.9-1.1.3-2.3.5-3.7.6-.7.1-1.3 0-2 .2-.2 0-.4.1-.6.1-1.2.3-2 1.4-1.8 2.5.3 1.1 1.5 1.8 2.7 1.5.2 0 .4-.1.5-.1.7-.2 1.2-.5 1.9-.7 1.4-.5 2.5-.9 3.6-1.1.5 0 1 .3 1.2.4l.9-.2c2.1 6.5 6.5 11.7 12 15l-.4.9c.1.4.3.8.2 1.2-.4 1-1.1 2.2-1.9 3.4-.4.6-.8 1-1.1 1.7l-.3.6c-.5 1.1-.1 2.5.9 3s2.3 0 2.9-1.2c.1-.2.2-.4.3-.5.3-.7.4-1.3.6-1.9.6-1.4.9-2.8 1.6-3.7.2-.2.5-.3.9-.4l.5-.9c4.8 1.9 10.2 2.4 15.6 1.1 1.2-.3 2.4-.6 3.6-1.1.1.2.4.7.4.8a2.02 2.02 0 0 1 1.1.6c.6 1 1 2.1 1.4 3.5.2.7.3 1.2.6 1.9.1.2.2.4.3.5.6 1.2 1.8 1.7 2.9 1.2 1-.5 1.4-1.8.9-3l-.3-.6c-.3-.7-.7-1.1-1.1-1.7-.8-1.2-1.4-2.3-1.8-3.3-.2-.5 0-.9.2-1.2-.1-.1-.2-.6-.3-.8 5.8-3.4 10-8.8 12-15.1a2.39 2.39 0 0 1 .9.2c.3-.2.6-.5 1.2-.4 1.1.2 2.3.6 3.6 1.1.6.2 1.2.5 1.9.7.2 0 .4.1.5.1 1.2.3 2.4-.4 2.7-1.5s-.5-2.2-1.8-2.5c-.2 0-.4-.1-.6-.1-.7-.1-1.3-.1-2-.2-1.5-.2-2.7-.3-3.7-.6-.4-.2-.7-.7-.9-.9l-.8-.2c.4-3.2.3-6.4-.4-9.7-.8-3.3-2.1-6.3-3.9-9l.7-.7c0-.4 0-.8.4-1.2.8-.8 1.9-1.4 3.1-2.2.6-.3 1.1-.6 1.7-1 .1-.1.3-.3.5-.4 1-.8 1.2-2.2.5-3.1s-2.1-1-3.1-.2c-.1.1-.3.3-.5.4-.6.5-.9 1-1.4 1.5-1 1-1.9 1.9-2.8 2.5-.4.2-1 .2-1.3.1l-.8.6c-4.5-4.7-10.7-7.8-17.3-8.3v-.9c-.3-.3-.6-.5-.7-1-.1-1.1.1-2.3.2-3.8.1-.7.3-1.2.3-2v-.6c.2-1.5-.7-2.6-1.9-2.6zm-2.6 16.2l-.6 10.9a1.79 1.79 0 0 1-1.8 1.8c-.4 0-.8-.1-1.1-.4l-9-6.3c2.8-2.7 6.3-4.7 10.3-5.6.7-.2 1.5-.3 2.2-.4zm5.2 0c4.7.6 9.1 2.7 12.5 6l-8.9 6.3c-.8.6-1.9.4-2.5-.3-.3-.3-.4-.7-.4-1.1l-.7-10.9zm-21 10l8.2 7.3c.7.6.8 1.8.2 2.5-.3.3-.6.5-1 .6l-10.5 3c-.5-4.7.7-9.4 3.1-13.4zm36.7.1c1.2 2 2.1 4.2 2.7 6.5.5 2.4.7 4.7.5 7l-10.5-3c-.9-.3-1.5-1.2-1.3-2.2.1-.4.3-.7.6-1l8-7.3zm-20 7.8h3.3l2.2 2.6-.7 3.2-3 1.4-3-1.4-.7-3.2 1.9-2.6zm10.8 8.9h.4l10.8 1.8a21.24 21.24 0 0 1-8.7 10.9l-4.2-10.2c-.4-.9 0-2 .9-2.4.3 0 .5-.1.8-.1zm-18.2.1c.8 0 1.6.6 1.8 1.4.1.4 0 .8-.1 1.1l-4.2 10.1c-3.9-2.5-7-6.2-8.6-10.8l10.7-1.8h.4zm9 4.4c.3 0 .6 0 .9.2.4.2.6.5.8.8l5.3 9.6-2.1.6c-4 .9-8.1.6-11.7-.6l5.3-9.6a1.58 1.58 0 0 1 1.5-1z" fill="#fff" stroke="#fff" stroke-width=".25"/></svg>