<?xml version="1.0" encoding="utf-8"?>
<!-- Generator: Adobe Illustrator 19.0.0, SVG Export Plug-In . SVG Version: 6.00 Build 0)  -->
<svg version="1.1" id="Layer_1" xmlns="http://www.w3.org/2000/svg" xmlns:xlink="http://www.w3.org/1999/xlink" x="0px" y="0px"
	 viewBox="52 -52 128 128" style="enable-background:new 52 -52 128 128;" xml:space="preserve">
<style type="text/css">
	.st0{fill:#61DAFB;}
</style>
<path class="st0" d="M159.3-6.8c-2.2-0.8-4.5-1.6-6.9-2.3c0.6-2.4,1.1-4.8,1.5-7.1c2.1-13.2-0.2-22.5-6.6-26.1
	c-1.9-1.1-4-1.6-6.4-1.6c-7,0-15.9,5.2-24.9,13.9c-9-8.7-17.9-13.9-24.9-13.9c-2.4,0-4.5,0.5-6.4,1.6c-6.4,3.7-8.7,13-6.6,26.1
	c0.4,2.3,0.9,4.7,1.5,7.1c-2.4,0.7-4.7,1.4-6.9,2.3C60.2-2,53.4,4.6,53.4,12s6.9,14,19.3,18.8c2.2,0.8,4.5,1.6,6.9,2.3
	c-0.6,2.4-1.1,4.8-1.5,7.1c-2.1,13.2,0.2,22.5,6.6,26.1c1.9,1.1,4,1.6,6.4,1.6c7.1,0,16-5.2,24.9-13.9c9,8.7,17.9,13.9,24.9,13.9
	c2.4,0,4.5-0.5,6.4-1.6c6.4-3.7,8.7-13,6.6-26.1c-0.4-2.3-0.9-4.7-1.5-7.1c2.4-0.7,4.7-1.4,6.9-2.3c12.5-4.8,19.3-11.4,19.3-18.8
	S171.8-2,159.3-6.8z M144.5-37.3c4.1,2.4,5.5,9.8,3.8,20.3c-0.3,2.1-0.8,4.3-1.4,6.6c-5.2-1.2-10.7-2-16.5-2.5
	c-3.4-4.8-6.9-9.1-10.4-13c7.4-7.3,14.9-12.3,21-12.3C142.3-38.2,143.5-37.9,144.5-37.3z M133.3,22c-1.8,3.2-3.9,6.4-6.1,9.6
	c-3.7,0.3-7.4,0.4-11.2,0.4c-3.9,0-7.6-0.1-11.2-0.4c-2.2-3.2-4.2-6.4-6-9.6c-1.9-3.3-3.7-6.7-5.3-10c1.6-3.3,3.4-6.7,5.3-10
	c1.8-3.2,3.9-6.4,6.1-9.6c3.7-0.3,7.4-0.4,11.2-0.4c3.9,0,7.6,0.1,11.2,0.4c2.2,3.2,4.2,6.4,6,9.6c1.9,3.3,3.7,6.7,5.3,10
	C136.9,15.3,135.2,18.6,133.3,22z M141.6,18.7c1.5,3.5,2.7,6.9,3.8,10.3c-3.4,0.8-7,1.4-10.8,1.9c1.2-1.9,2.5-3.9,3.6-6
	C139.4,22.8,140.5,20.7,141.6,18.7z M116,45.8c-2.4-2.6-4.7-5.4-6.9-8.3c2.3,0.1,4.6,0.2,6.9,0.2s4.6-0.1,6.9-0.2
	C120.7,40.4,118.4,43.2,116,45.8z M97.4,30.8c-3.8-0.5-7.4-1.1-10.8-1.9c1.1-3.3,2.3-6.8,3.8-10.3c1.1,2,2.2,4.1,3.4,6.1
	C95,26.9,96.2,28.8,97.4,30.8z M90.4,5.3C88.9,1.8,87.7-1.6,86.6-5c3.4-0.8,7-1.4,10.8-1.9c-1.2,1.9-2.5,3.9-3.6,6
	C92.6,1.2,91.5,3.3,90.4,5.3z M116-21.8c2.4,2.6,4.7,5.4,6.9,8.3c-2.3-0.1-4.6-0.2-6.9-0.2c-2.3,0-4.6,0.1-6.9,0.2
	C111.3-16.4,113.6-19.2,116-21.8z M138.2-0.8l-3.6-6c3.8,0.5,7.4,1.1,10.8,1.9c-1.1,3.3-2.3,6.8-3.8,10.3
	C140.5,3.3,139.4,1.2,138.2-0.8z M83.7-17c-1.7-10.5-0.3-17.9,3.8-20.3c1-0.6,2.2-0.9,3.5-0.9c6,0,13.5,4.9,21,12.3
	c-3.5,3.8-7,8.2-10.4,13c-5.8,0.5-11.3,1.4-16.5,2.5C84.5-12.7,84.1-14.9,83.7-17z M59,12c0-4.7,5.7-9.7,15.7-13.4
	c2-0.8,4.2-1.5,6.4-2.1c1.6,5,3.6,10.3,6,15.6c-2.4,5.3-4.5,10.5-6,15.5C67.3,23.6,59,17.6,59,12z M87.5,61.3
	c-4.1-2.4-5.5-9.8-3.8-20.3c0.3-2.1,0.8-4.3,1.4-6.6c5.2,1.2,10.7,2,16.5,2.5c3.4,4.8,6.9,9.1,10.4,13c-7.4,7.3-14.9,12.3-21,12.3
	C89.7,62.2,88.5,61.9,87.5,61.3z M148.3,41c1.7,10.5,0.3,17.9-3.8,20.3c-1,0.6-2.2,0.9-3.5,0.9c-6,0-13.5-4.9-21-12.3
	c3.5-3.8,7-8.2,10.4-13c5.8-0.5,11.3-1.4,16.5-2.5C147.5,36.7,147.9,38.9,148.3,41z M157.3,25.4c-2,0.8-4.2,1.5-6.4,2.1
	c-1.6-5-3.6-10.3-6-15.6c2.4-5.3,4.5-10.5,6-15.5c13.8,4,22.1,10,22.1,15.6C173,16.7,167.2,21.7,157.3,25.4z"/>
</svg>
