<?xml version="1.0" encoding="utf-8"?>
<!-- Generator: Adobe Illustrator 19.0.0, SVG Export Plug-In . SVG Version: 6.00 Build 0)  -->
<svg version="1.1" id="Layer_1" xmlns="http://www.w3.org/2000/svg" xmlns:xlink="http://www.w3.org/1999/xlink" x="0px" y="0px"
	 viewBox="52 -52 128 128" style="enable-background:new 52 -52 128 128;" xml:space="preserve">
<style type="text/css">
	.st0{fill:#8ED6FB;}
	.st1{fill:#1C78C0;}
</style>
<path class="st0" d="M169.3,46.1L118.2,75V52.5L150,35L169.3,46.1z M172.8,42.9v-60.4L154.1-6.7v38.8L172.8,42.9L172.8,42.9z
	 M62.7,46.1l51,28.9V52.5L81.9,35L62.7,46.1z M59.2,42.9v-60.4L77.9-6.7v38.8L59.2,42.9z M61.4-21.4L113.8-51v21.8L80.2-10.8
	l-0.3,0.2L61.4-21.4z M170.6-21.4L118.2-51v21.8l33.6,18.4l0.3,0.2L170.6-21.4L170.6-21.4z"/>
<path class="st1" d="M113.8,47.4L82.4,30.1V-4.1L113.8,14V47.4z M118.2,47.4l31.4-17.3V-4.1L118.2,14V47.4z M84.5-8L116-25.3
	L147.5-8L116,10.2L84.5-8z"/>
</svg>
